<svg xmlns="http://www.w3.org/2000/svg" viewBox="0 0 120 120" role="img" aria-label="Occidental College Tiger mascot">
  <rect width="120" height="120" rx="8" fill="#FF6600"/>
  <path fill="#000" d="M16 36 L28 14 L40 36 Z"/>
  <path fill="#000" d="M80 36 L92 14 L104 36 Z"/>
  <ellipse cx="60" cy="62" rx="34" ry="30" fill="#FF8533"/>
  <path fill="#000" d="M38 52 h6 v8 h-6 z M76 52 h6 v8 h-6 z"/>
  <ellipse cx="48" cy="58" rx="5" ry="6" fill="#000"/>
  <ellipse cx="72" cy="58" rx="5" ry="6" fill="#000"/>
  <circle cx="49" cy="57" r="1.5" fill="#fff"/>
  <circle cx="73" cy="57" r="1.5" fill="#fff"/>
  <path fill="#000" d="M52 72 L60 80 L68 72 L64 76 Q60 82 56 76 Z"/>
  <path fill="none" stroke="#000" stroke-width="3" d="M42 64 Q36 70 32 78"/>
  <path fill="none" stroke="#000" stroke-width="3" d="M78 64 Q84 70 88 78"/>
  <path fill="none" stroke="#000" stroke-width="2" d="M44 48 Q60 42 76 48"/>
  <text x="60" y="108" text-anchor="middle" fill="#000" font-family="Helvetica, Arial, sans-serif" font-size="10" font-weight="700">TIGERS</text>
</svg>
